<svg width="1109" height="954" xmlns="http://www.w3.org/2000/svg" xmlns:xlink="http://www.w3.org/1999/xlink" xml:space="preserve" overflow="hidden"><g transform="translate(-618 -760)"><g><g><g><g><path d="M65.8541 22.0702C65.5513 22.2216 65.2535 22.3836 64.9606 22.5562 59.3945 25.8401 56.4665 32.2464 57.6258 38.6042L65.8541 38.6042Z" fill="#E8FAFC" fill-rule="nonzero" fill-opacity="1" transform="matrix(1.0367 0 0 1 797 860)"/><path d="M58.6579 42.0104C62.0661 49.8067 71.1492 53.3641 78.9455 49.9559 79.5033 49.712 80.0463 49.4353 80.5714 49.1272 80.585 49.1181 80.5987 49.1079 80.6123 49.0999L80.6123 42.0104Z" fill="#E8FAFC" fill-rule="nonzero" fill-opacity="1" transform="matrix(1.0367 0 0 1 797 860)"/><path d="M59.2086 12.7655C59.3755 12.6678 59.5492 12.5838 59.7172 12.4896L39.7396 12.4896 39.7396 38.6042 46.1558 38.6042C45.0797 28.1799 50.1793 18.0849 59.2086 12.7655ZM43.1458 15.8958 47.6875 15.8958 47.6875 20.4375 43.1458 20.4375Z" fill="#E8FAFC" fill-rule="nonzero" fill-opacity="1" transform="matrix(1.0367 0 0 1 797 860)"/><path d="M80.6146 62.0653 80.2853 61.5055C77.8479 62.2208 75.3203 62.5826 72.7802 62.5796 65.9947 62.5655 59.4653 59.9878 54.5 55.3629L54.5 68.125 80.6146 68.125Z" fill="#E8FAFC" fill-rule="nonzero" fill-opacity="1" transform="matrix(1.0367 0 0 1 797 860)"/><path d="M89.0053 81.0687 83.4043 71.5312 69.2604 71.5312 69.2604 97.6458 94.2395 97.6458 94.2395 85.1063C92.0385 84.4873 90.1627 83.0404 89.0053 81.0687ZM77.2083 79.4791 72.6666 79.4791 72.6666 74.9375 77.2083 74.9375Z" fill="#E8FAFC" fill-rule="nonzero" fill-opacity="1" transform="matrix(1.0367 0 0 1 797 860)"/><path d="M39.7396 97.6458 65.8541 97.6458 65.8541 71.5312 39.7396 71.5312ZM43.1458 74.9375 47.6875 74.9375 47.6875 79.4791 43.1458 79.4791Z" fill="#E8FAFC" fill-rule="nonzero" fill-opacity="1" transform="matrix(1.0367 0 0 1 797 860)"/><path d="M10.2187 97.6458 36.3333 97.6458 36.3333 71.5312 10.2187 71.5312ZM13.625 74.9375 18.1667 74.9375 18.1667 79.4791 13.625 79.4791Z" fill="#E8FAFC" fill-rule="nonzero" fill-opacity="1" transform="matrix(1.0367 0 0 1 797 860)"/><path d="M51.0937 51.5161C50.5987 50.8349 50.123 50.1332 49.6926 49.3997 48.3386 47.0991 47.3378 44.6082 46.7235 42.0104L24.9792 42.0104 24.9792 68.125 51.0937 68.125ZM32.9271 49.9583 28.3854 49.9583 28.3854 45.4166 32.9271 45.4166Z" fill="#E8FAFC" fill-rule="nonzero" fill-opacity="1" transform="matrix(1.0367 0 0 1 797 860)"/><path d="M92.9054 24.0095C86.3822 12.8808 72.0727 9.14745 60.944 15.6706 49.8155 22.1938 46.082 36.5034 52.6052 47.632 58.5248 57.7309 71.0059 61.888 81.7988 57.3556L84.6669 62.2378C83.8957 63.8787 83.984 65.7945 84.903 67.3574L91.9426 79.3361C93.5136 81.9373 96.8957 82.7725 99.497 81.2016 102.054 79.6575 102.912 76.3557 101.43 73.7623L94.3906 61.7837C93.4731 60.2219 91.8453 59.2124 90.0385 59.0848L87.1704 54.2025C96.359 46.9857 98.808 34.0928 92.9054 24.0095ZM56.5437 45.3735C51.2794 36.4145 54.2745 24.8841 63.2335 19.6198 72.1925 14.3554 83.7229 17.3505 88.9872 26.3095 94.2516 35.2685 91.2565 46.7989 82.2975 52.0633 82.2974 52.0633 82.2974 52.0634 82.2972 52.0634 73.3364 57.3148 61.8158 54.3222 56.5437 45.3735Z" fill="#E8FAFC" fill-rule="nonzero" fill-opacity="1" transform="matrix(1.0367 0 0 1 797 860)"/></g></g></g><text fill="#E8FAFC" fill-opacity="1" font-family="Inter,Inter_MSFontService,sans-serif" font-style="normal" font-variant="normal" font-weight="400" font-stretch="normal" font-size="32" text-anchor="start" direction="ltr" writing-mode="lr-tb" unicode-bidi="normal" text-decoration="none" transform="matrix(1 0 0 1 800.036 1005)">Search</text><g><g><g><path d="M64.1181 84.9201 44.5764 84.9201C42.7692 84.9201 41.3042 86.3851 41.3042 88.1923 41.3042 89.9996 42.7692 91.4646 44.5764 91.4646L64.1181 91.4646C65.9253 91.4646 67.3904 89.9996 67.3904 88.1923 67.3904 86.3851 65.9253 84.9201 64.1181 84.9201Z" fill="#E8FAFC" fill-rule="nonzero" fill-opacity="1" transform="matrix(1.0367 0 0 1 675 1156)"/><path d="M54.3478 102.56C58.0587 102.559 61.1453 99.7057 61.4362 96.0063L47.2583 96.0063C47.5493 99.7061 50.6366 102.56 54.3478 102.56Z" fill="#E8FAFC" fill-rule="nonzero" fill-opacity="1" transform="matrix(1.0367 0 0 1 675 1156)"/><path d="M82.7026 50.4965 82.7026 49.5155C82.4195 34.0275 69.838 21.5906 54.3478 21.4866 38.8566 21.5894 26.2733 34.0265 25.9897 49.5155L25.9897 50.4965C26.0955 53.8556 26.7629 57.1734 27.9642 60.3122 29.1137 63.2743 30.7828 66.0073 32.893 68.3827 35.4886 71.2213 38.3351 76.7258 39.5352 79.1692 39.9031 79.9106 40.6593 80.3795 41.487 80.3795L67.2053 80.3795C68.0331 80.3792 68.7895 79.9104 69.1582 79.1692 70.3572 76.7269 73.2037 71.2213 75.7993 68.3827 77.9094 66.0073 79.5786 63.2743 80.7281 60.3122 81.9289 57.1732 82.5962 53.8556 82.7026 50.4965ZM76.1592 50.383C76.0605 52.997 75.5328 55.577 74.5968 58.0198 73.7317 60.2212 72.4835 62.252 70.9101 64.0182 68.4104 67.0315 66.2695 70.3251 64.5303 73.8327L44.1586 73.8327C42.4198 70.3248 40.2788 67.0312 37.7787 64.0182 36.2052 62.2523 34.9574 60.2213 34.0931 58.0198 33.1578 55.5777 32.6307 52.9984 32.5331 50.3852L32.5331 49.5677C32.7535 37.6584 42.4344 28.0995 54.3456 28.03 66.2577 28.0989 75.9389 37.6597 76.1569 49.57Z" fill="#E8FAFC" fill-rule="nonzero" fill-opacity="1" transform="matrix(1.0367 0 0 1 675 1156)"/><path d="M54.5704 17.0312C55.8246 17.0312 56.8412 16.0146 56.8412 14.7604L56.8412 6.8125C56.8412 5.55835 55.8246 4.54167 54.5704 4.54167 53.3162 4.54167 52.2995 5.55835 52.2995 6.8125L52.2995 14.7604C52.2995 16.0146 53.3162 17.0312 54.5704 17.0312Z" fill="#E8FAFC" fill-rule="nonzero" fill-opacity="1" transform="matrix(1.0367 0 0 1 675 1156)"/><path d="M27.6201 27.0229C28.4915 27.925 29.929 27.95 30.8311 27.0788 31.7332 26.2075 31.7582 24.7699 30.887 23.8678 30.8687 23.8489 30.8501 23.8302 30.8311 23.812L25.2062 18.1871C24.3042 17.3158 22.8666 17.3408 21.9953 18.243 21.1453 19.1229 21.1453 20.5181 21.9953 21.3981Z" fill="#E8FAFC" fill-rule="nonzero" fill-opacity="1" transform="matrix(1.0367 0 0 1 675 1156)"/><path d="M79.9458 28.114C80.548 28.1139 81.1255 27.8746 81.5513 27.4487L87.1704 21.8284C88.0235 20.909 87.9697 19.4722 87.0502 18.6192 86.1784 17.8104 84.8304 17.811 83.9595 18.6208L78.3437 24.2377C77.4571 25.1247 77.4573 26.5625 78.3442 27.4491 78.77 27.8748 79.3472 28.1139 79.9492 28.114Z" fill="#E8FAFC" fill-rule="nonzero" fill-opacity="1" transform="matrix(1.0367 0 0 1 675 1156)"/><path d="M19.3021 47.1198 11.3542 47.1198C10.1 47.1198 9.08333 48.1364 9.08333 49.3906 9.08333 50.6448 10.1 51.6614 11.3542 51.6614L19.3021 51.6614C20.5563 51.6614 21.5729 50.6448 21.5729 49.3906 21.5729 48.1364 20.5563 47.1198 19.3021 47.1198Z" fill="#E8FAFC" fill-rule="nonzero" fill-opacity="1" transform="matrix(1.0367 0 0 1 675 1156)"/><path d="M27.6201 71.6856 21.9998 77.306C21.0764 78.1547 21.0159 79.5912 21.8646 80.5145 22.7132 81.438 24.1497 81.4985 25.0732 80.6499 25.1194 80.6074 25.1638 80.563 25.2062 80.5169L30.8266 74.8966C31.7286 74.0253 31.7536 72.5877 30.8824 71.6856 30.0111 70.7836 28.5735 70.7586 27.6715 71.6298 27.6525 71.6481 27.6339 71.6667 27.6156 71.6856Z" fill="#E8FAFC" fill-rule="nonzero" fill-opacity="1" transform="matrix(1.0367 0 0 1 675 1156)"/><path d="M81.5513 71.2553C80.6973 70.3369 79.2605 70.2845 78.3419 71.1385 77.4235 71.9924 77.3711 73.4293 78.2252 74.3478 78.2632 74.3887 78.3027 74.4282 78.3437 74.4663L83.9629 80.0854C84.865 80.9568 86.3025 80.9318 87.1739 80.0296 88.0238 79.1496 88.0238 77.7544 87.1739 76.8745Z" fill="#E8FAFC" fill-rule="nonzero" fill-opacity="1" transform="matrix(1.0367 0 0 1 675 1156)"/><path d="M97.3619 47.0426 89.414 47.0426C88.1599 47.0426 87.1432 48.0592 87.1432 49.3134 87.1432 50.5676 88.1599 51.5842 89.414 51.5842L97.3619 51.5842C98.6161 51.5842 99.6328 50.5676 99.6328 49.3134 99.6328 48.0592 98.6161 47.0426 97.3619 47.0426Z" fill="#E8FAFC" fill-rule="nonzero" fill-opacity="1" transform="matrix(1.0367 0 0 1 675 1156)"/></g></g></g><text fill="#E8FAFC" fill-opacity="1" font-family="Inter,Inter_MSFontService,sans-serif" font-style="normal" font-variant="normal" font-weight="400" font-stretch="normal" font-size="32" text-anchor="start" direction="ltr" writing-mode="lr-tb" unicode-bidi="normal" text-decoration="none" transform="matrix(1 0 0 1 684.345 1305)">Ideate</text><g><g><g><path d="M101.635 50.1875C101.406 49.9583 101.062 49.7292 100.833 49.5L100.833 27.5C100.833 24.9792 98.7708 22.9167 96.25 22.9167L13.75 22.9167C11.2292 22.9167 9.16667 24.9792 9.16667 27.5L9.16667 82.5C9.16667 85.0208 11.2292 87.0833 13.75 87.0833L96.25 87.0833C98.7708 87.0833 100.833 85.0208 100.833 82.5L100.833 60.7292 101.635 59.9271C102.896 58.6667 103.698 56.9479 103.698 55.1146 103.698 53.1667 103.01 51.4479 101.635 50.1875ZM93.9583 80.2083 16.0417 80.2083 16.0417 29.7917 93.9583 29.7917 93.9583 48.6979C93.2708 49.0417 92.5833 49.5 91.8958 50.0729L89.375 52.7083 89.375 34.375 20.625 34.375 20.625 75.625 89.375 75.625 89.375 71.1562C90.2917 70.8125 91.2083 70.2396 91.8958 69.5521L93.9583 67.6042 93.9583 80.2083ZM57.5208 57.1771C58.2083 60.2708 58.5521 62.1042 56.9479 63.25 55.3438 64.3958 53.5104 63.25 52.5938 62.5625 45.8333 58.2083 35.9792 48.3542 35.6354 48.0104 34.7188 47.0938 34.7188 45.7188 35.6354 44.8021 36.5521 43.8854 37.9271 43.8854 38.8438 44.8021 38.9583 44.9167 46.75 52.5938 52.8229 57.2917 52.3646 55.3438 51.9062 52.8229 51.5625 49.6146 51.1042 45.8333 52.8229 44.6875 53.8542 44.2292 55.6875 43.5417 58.6667 44 66.3438 51.4479 70.2396 55.2292 74.4792 60.0417 75.7396 62.2188 76.4271 63.25 76.0833 64.7396 74.9375 65.3125 74.5938 65.5417 74.1354 65.6562 73.7917 65.6562 72.9896 65.6562 72.3021 65.3125 71.8438 64.5104 68.75 59.4688 59.4688 50.9896 56.1458 49.0417 56.4896 52.4792 57.0625 55.2292 57.5208 57.1771ZM98.4271 56.6042 88.6875 66.3438C87.7708 67.2604 86.3958 67.2604 85.4792 66.3438 84.5625 65.4271 84.5625 64.0521 85.4792 63.1354L95.2188 53.3958C96.1354 52.4792 97.5104 52.4792 98.4271 53.3958 99.3438 54.3125 99.3438 55.6875 98.4271 56.6042Z" fill="#E8FAFC" fill-rule="nonzero" fill-opacity="1" transform="matrix(1.03636 0 0 1 1426 902)"/></g></g></g><g><g><g><path d="M73.8146 82.5 36.0021 82.5C31.2559 82.5 27.4083 86.3476 27.4083 91.0938 27.4083 95.8399 31.2559 99.6875 36.0021 99.6875L73.8146 99.6875C78.5607 99.6875 82.4083 95.8399 82.4083 91.0938 82.4083 86.3476 78.5607 82.5 73.8146 82.5ZM38.2938 94.5312C36.3952 94.5312 34.8563 92.9923 34.8563 91.0938 34.8563 89.1952 36.3952 87.6562 38.2938 87.6562 40.1923 87.6562 41.7313 89.1952 41.7313 91.0938 41.7313 92.9923 40.1923 94.5312 38.2938 94.5312ZM54.9083 94.5312C53.0098 94.5312 51.4708 92.9923 51.4708 91.0938 51.4708 89.1952 53.0098 87.6562 54.9083 87.6562 56.8069 87.6562 58.3458 89.1952 58.3458 91.0938 58.3458 92.9923 56.8069 94.5312 54.9083 94.5312ZM71.5229 94.5312C69.6244 94.5312 68.0854 92.9923 68.0854 91.0938 68.0854 89.1952 69.6244 87.6562 71.5229 87.6562 73.4214 87.6562 74.9604 89.1952 74.9604 91.0938 74.9604 92.9923 73.4214 94.5312 71.5229 94.5312Z" fill="#E8FAFC" fill-rule="nonzero" fill-opacity="1" transform="matrix(1.03636 0 0 1 1426 827)"/><path d="M62.826 32.0833C62.826 33.0326 62.0565 33.8021 61.1073 33.8021 60.1581 33.8021 59.3885 33.0326 59.3885 32.0833 59.3885 31.1341 60.1581 30.3646 61.1073 30.3646 62.0565 30.3646 62.826 31.1341 62.826 32.0833Z" fill="#E8FAFC" fill-rule="nonzero" fill-opacity="1" transform="matrix(1.03636 0 0 1 1426 827)"/><path d="M64.8656 20.625 57.2917 20.625 57.2917 15.4115C59.4839 14.1458 60.235 11.3427 58.9693 9.15051 57.7036 6.95834 54.9005 6.20724 52.7083 7.4729 50.5161 8.73855 49.765 11.5416 51.0307 13.7338 51.433 14.4306 52.0116 15.0092 52.7083 15.4115L52.7083 20.625 45.1344 20.625C42.3589 20.6313 40.1105 22.8798 40.1042 25.6552L40.1042 38.5115C40.1105 41.2869 42.3589 43.5354 45.1344 43.5417L64.8656 43.5417C67.6411 43.5354 69.8895 41.2869 69.8958 38.5115L69.8958 25.6552C69.8895 22.8798 67.6411 20.6313 64.8656 20.625ZM49.2708 35.5208C47.3723 35.5208 45.8333 33.9819 45.8333 32.0833 45.8333 30.1848 47.3723 28.6458 49.2708 28.6458 51.1694 28.6458 52.7083 30.1848 52.7083 32.0833 52.7083 33.9819 51.1694 35.5208 49.2708 35.5208ZM60.7292 35.5208C58.8306 35.5208 57.2917 33.9819 57.2917 32.0833 57.2917 30.1848 58.8306 28.6458 60.7292 28.6458 62.6277 28.6458 64.1667 30.1848 64.1667 32.0833 64.1667 33.9819 62.6277 35.5208 60.7292 35.5208Z" fill="#E8FAFC" fill-rule="nonzero" fill-opacity="1" transform="matrix(1.03636 0 0 1 1426 827)"/><path d="M51.3677 32.0833C51.3677 33.0326 50.5982 33.8021 49.649 33.8021 48.6997 33.8021 47.9302 33.0326 47.9302 32.0833 47.9302 31.1341 48.6997 30.3646 49.649 30.3646 50.5982 30.3646 51.3677 31.1341 51.3677 32.0833Z" fill="#E8FAFC" fill-rule="nonzero" fill-opacity="1" transform="matrix(1.03636 0 0 1 1426 827)"/><path d="M84.7917 67.3979 84.7917 57.8531C84.7917 55.0117 82.4883 52.7083 79.6469 52.7083L73.3333 52.7083 73.3333 46.9792 36.6667 46.9792 36.6667 53.8542 28.0615 53.8542C27.7514 53.8542 27.5 53.6028 27.5 53.2927L27.5 43.7938C31.4389 42.6305 33.689 38.4944 32.5257 34.5556 32.2138 33.4996 31.6714 32.5261 30.9375 31.7052L27.5 34.7531C27.9808 35.276 28.2538 35.9565 28.2677 36.6667 28.2591 38.2487 26.9696 39.5243 25.3875 39.5157 23.8055 39.507 22.5301 38.2176 22.5387 36.6355 22.5423 35.9521 22.7902 35.2927 23.2375 34.776L19.8 31.7625C17.0994 34.8652 17.4254 39.5696 20.5281 42.2703 21.23 42.8812 22.0401 43.3552 22.9167 43.6677L22.9167 53.2927C22.9167 56.1341 25.22 58.4375 28.0615 58.4375L36.6667 58.4375 36.6667 79.0625 73.3333 79.0625 73.3333 57.2917 79.6469 57.2917C79.9569 57.2917 80.2083 57.5431 80.2083 57.8531L80.2083 67.3979C76.2946 68.6639 74.1484 72.863 75.4144 76.7767 75.7313 77.7561 76.2478 78.6593 76.9313 79.4292L80.3688 76.3813C79.8946 75.8615 79.6329 75.1827 79.6354 74.4792 79.6368 72.8971 80.9204 71.6156 82.5024 71.617 84.0845 71.6184 85.366 72.9019 85.3646 74.484 85.364 75.1779 85.1116 75.848 84.6542 76.3698L88.0917 79.3833C90.8028 76.2983 90.4997 71.5996 87.4147 68.8884 86.6515 68.2175 85.7586 67.7103 84.7917 67.3979ZM68.75 63.0208 65.5646 63.0208C65.4538 63.0407 65.3484 63.0836 65.2552 63.1469L61.749 66.7333 59.0792 60.4083 54.0948 70.7208 50.6 57.2917 47.9073 63.0208 42.3958 63.0208 42.3958 60.7292 46.4521 60.7292 51.2188 50.5885 54.7479 64.0865 59.2281 54.9198 62.5281 62.7344 63.674 61.5885C64.1771 61.0793 64.8502 60.7734 65.5646 60.7292L68.75 60.7292Z" fill="#E8FAFC" fill-rule="nonzero" fill-opacity="1" transform="matrix(1.03636 0 0 1 1426 827)"/></g></g></g><text fill="#E8FAFC" fill-opacity="1" font-family="Inter,Inter_MSFontService,sans-serif" font-style="normal" font-variant="normal" font-weight="400" font-stretch="normal" font-size="32" text-anchor="start" direction="ltr" writing-mode="lr-tb" unicode-bidi="normal" text-decoration="none" transform="matrix(1 0 0 1 1422.83 1038)">Prepare</text><g><g><g><path d="M26.3542 22.9167 38.9583 22.9167 38.9583 29.7917 71.0417 29.7917 71.0417 22.9167 83.6458 22.9167 83.6458 93.9583 26.3542 93.9583 26.3542 22.9167ZM55.1146 13.75C56.9479 13.75 58.4375 15.3542 58.4375 17.1875 58.4375 19.1354 56.9479 20.625 55 20.625 53.0521 20.625 51.5625 19.1354 51.5625 17.1875 51.5625 15.2396 53.0521 13.75 55.1146 13.75ZM19.4792 20.625 19.4792 96.25C19.4792 98.7708 21.5417 100.833 24.0625 100.833L85.9375 100.833C88.4583 100.833 90.5208 98.7708 90.5208 96.25L90.5208 20.625C90.5208 18.1042 88.4583 16.0417 85.9375 16.0417L66.4583 16.0417 66.4583 13.75C66.4583 11.2292 64.3958 9.16667 61.875 9.16667L48.125 9.16667C45.6042 9.16667 43.5417 11.2292 43.5417 13.75L43.5417 16.0417 24.0625 16.0417C21.5417 16.0417 19.4792 18.1042 19.4792 20.625Z" fill="#E8FAFC" fill-rule="nonzero" fill-opacity="1" transform="matrix(1.03636 0 0 1 1558 1156)"/><path d="M33.2292 38.9583 52.7083 38.9583 52.7083 43.5417 33.2292 43.5417Z" fill="#E8FAFC" fill-rule="nonzero" fill-opacity="1" transform="matrix(1.03636 0 0 1 1558 1156)"/><path d="M33.2292 52.7083 52.7083 52.7083 52.7083 57.2917 33.2292 57.2917Z" fill="#E8FAFC" fill-rule="nonzero" fill-opacity="1" transform="matrix(1.03636 0 0 1 1558 1156)"/><path d="M33.2292 66.4583 52.7083 66.4583 52.7083 71.0417 33.2292 71.0417Z" fill="#E8FAFC" fill-rule="nonzero" fill-opacity="1" transform="matrix(1.03636 0 0 1 1558 1156)"/><path d="M33.2292 80.2083 52.7083 80.2083 52.7083 84.7917 33.2292 84.7917Z" fill="#E8FAFC" fill-rule="nonzero" fill-opacity="1" transform="matrix(1.03636 0 0 1 1558 1156)"/><path d="M60.6146 41.0208 63.0208 38.6146 66 41.5938 73.5625 34.0313 75.9688 36.4375 66 46.4062Z" fill="#E8FAFC" fill-rule="nonzero" fill-opacity="1" transform="matrix(1.03636 0 0 1 1558 1156)"/><path d="M60.6146 54.7708 63.0208 52.3646 66 55.3438 73.5625 47.7813 75.9688 50.1875 66 60.1563Z" fill="#E8FAFC" fill-rule="nonzero" fill-opacity="1" transform="matrix(1.03636 0 0 1 1558 1156)"/><path d="M60.6146 68.5208 63.0208 66.1146 66 69.0938 73.5625 61.5313 75.9688 63.9375 66 73.9062Z" fill="#E8FAFC" fill-rule="nonzero" fill-opacity="1" transform="matrix(1.03636 0 0 1 1558 1156)"/><path d="M60.6146 82.2708 63.0208 79.8646 66 82.8438 73.5625 75.2812 75.9688 77.6875 66 87.6562Z" fill="#E8FAFC" fill-rule="nonzero" fill-opacity="1" transform="matrix(1.03636 0 0 1 1558 1156)"/></g></g></g><text fill="#E8FAFC" fill-opacity="1" font-family="Inter,Inter_MSFontService,sans-serif" font-style="normal" font-variant="normal" font-weight="400" font-stretch="normal" font-size="32" text-anchor="start" direction="ltr" writing-mode="lr-tb" unicode-bidi="normal" text-decoration="none" transform="matrix(1 0 0 1 1566.79 1305)">Check</text><g><g><g><path d="M93.9583 95.7917 71.0417 74.0208 93.9583 52.25 93.9583 95.7917ZM19.7083 98.5417 42.3958 77.1146 44 75.625C50.1875 69.7813 59.9271 69.7813 66.1146 75.625L67.7188 77.1146 90.2917 98.5417 19.7083 98.5417ZM16.0417 52.1354 38.9583 73.9062 16.0417 95.6771 16.0417 52.1354ZM32.0833 22.9167 77.9167 22.9167 77.9167 61.0729 67.6042 70.9271C60.1563 65.1979 49.8438 65.1979 42.3958 70.9271L32.0833 61.0729 32.0833 22.9167ZM84.7917 26.0104 84.7917 16.0417 68.75 16.0417 55 4.58333 41.25 16.0417 25.2083 16.0417 25.2083 26.125 9.16667 41.3646 9.16667 105.417 100.833 105.417 100.833 41.3646 84.7917 26.0104Z" fill="#E8FAFC" fill-rule="nonzero" fill-opacity="1" transform="matrix(1.03636 0 0 1 1426 1412)"/><path d="M55 48.4688C52.9375 48.4688 51.3333 46.75 51.3333 44.8021 51.3333 42.7396 53.0521 41.1354 55 41.1354 57.0625 41.1354 58.6667 42.7396 58.6667 44.8021 58.6667 46.8646 57.0625 48.4688 55 48.4688ZM55 59.5833C57.6354 59.5833 60.1563 58.8958 62.4479 57.75 63.3646 57.1771 63.7083 56.0313 63.25 55.1146 62.6771 54.1979 61.5313 53.8542 60.6146 54.3125 58.8958 55.2292 56.9479 55.6875 55 55.6875 48.9271 55.6875 43.8854 50.6458 44 44.5729 44 38.5 49.0417 33.4583 55.1146 33.4583 61.1875 33.4583 66.2292 38.3854 66.2292 44.5729L66.2292 48.2396C64.1667 48.2396 62.5625 46.6354 62.5625 44.5729 62.5625 40.9063 60.0417 37.8125 56.4896 37.125 52.9375 36.4375 49.3854 38.3854 48.125 41.7083 46.8646 45.0312 48.125 48.9271 51.2188 50.7604 54.3125 52.5938 58.3229 52.0208 60.7292 49.2708 62.1042 50.875 64.1667 51.7917 66.3438 51.7917 68.4062 51.7917 70.0104 50.1875 70.0104 48.125L70.0104 44.4583C70.0104 36.2083 63.3646 29.5625 55.1146 29.5625 46.8646 29.5625 40.2188 36.2083 40.2188 44.4583 40.1042 52.8229 46.75 59.4688 55 59.5833Z" fill="#E8FAFC" fill-rule="nonzero" fill-opacity="1" transform="matrix(1.03636 0 0 1 1426 1412)"/></g></g></g><text fill="#E8FAFC" fill-opacity="1" font-family="Inter,Inter_MSFontService,sans-serif" font-style="normal" font-variant="normal" font-weight="400" font-stretch="normal" font-size="32" text-anchor="start" direction="ltr" writing-mode="lr-tb" unicode-bidi="normal" text-decoration="none" transform="matrix(1 0 0 1 1443.74 1568)">Send</text><g><g><g><path d="M63.0208 30.8229C63.0208 35.2917 59.4688 38.8438 55 38.8438 50.5312 38.8438 46.9792 35.2917 46.9792 30.8229 46.9792 26.3542 50.5312 22.8021 55 22.8021 59.4688 22.8021 63.0208 26.4688 63.0208 30.8229" fill="#E8FAFC" fill-rule="nonzero" fill-opacity="1" transform="matrix(1.03636 0 0 1 1121 1548)"/><path d="M95.1042 35.4062C95.1042 39.875 91.5521 43.4271 87.0833 43.4271 82.6146 43.4271 79.0625 39.875 79.0625 35.4062 79.0625 30.9375 82.6146 27.3854 87.0833 27.3854 91.5521 27.3854 95.1042 30.9375 95.1042 35.4062" fill="#E8FAFC" fill-rule="nonzero" fill-opacity="1" transform="matrix(1.03636 0 0 1 1121 1548)"/><path d="M30.9375 35.4062C30.9375 39.875 27.3854 43.4271 22.9167 43.4271 18.4479 43.4271 14.8958 39.875 14.8958 35.4062 14.8958 30.9375 18.4479 27.3854 22.9167 27.3854 27.3854 27.3854 30.9375 30.9375 30.9375 35.4062" fill="#E8FAFC" fill-rule="nonzero" fill-opacity="1" transform="matrix(1.03636 0 0 1 1121 1548)"/><path d="M9.85417 87.1979C9.85417 70.4688 30.0208 56.9479 55 56.9479 79.8646 56.9479 100.146 70.4688 100.146 87.1979L9.85417 87.1979Z" fill="#E8FAFC" fill-rule="nonzero" fill-opacity="1" transform="matrix(1.03636 0 0 1 1121 1548)"/><path d="M20.1667 61.1875C24.9792 57.9792 30.5938 55.4583 36.6667 53.8542L36.6667 52.5938C36.6667 51.3333 36.0938 50.0729 35.2917 49.2708 34.9479 48.9271 34.1458 48.4688 33.1146 48.0104 26.8125 45.0312 19.3646 45.0312 12.9479 47.8958 11.8021 48.3542 10.8854 48.9271 10.4271 49.2708 9.73958 50.0729 9.16667 51.3333 9.16667 52.5938L9.16667 72.0729C11.8021 68.0625 15.4688 64.2812 20.1667 61.1875" fill="#E8FAFC" fill-rule="nonzero" fill-opacity="1" transform="matrix(1.03636 0 0 1 1121 1548)"/><path d="M68.75 52.7083 68.75 48.0104C68.75 46.75 68.1771 45.4896 67.375 44.6875 67.0312 44.3438 66.2292 43.8854 65.1979 43.4271 58.8958 40.4479 51.4479 40.4479 45.0312 43.3125 43.8854 43.7708 42.9688 44.3438 42.5104 44.6875 41.5938 45.4896 41.1354 46.75 41.1354 48.0104L41.1354 52.7083C45.6042 51.7917 50.1875 51.3333 54.8854 51.3333 59.5833 51.3333 64.2812 51.9062 68.75 52.7083" fill="#E8FAFC" fill-rule="nonzero" fill-opacity="1" transform="matrix(1.03636 0 0 1 1121 1548)"/><path d="M100.833 72.0729 100.833 52.5938C100.833 51.3333 100.26 50.0729 99.4583 49.2708 99.1146 48.9271 98.3125 48.4688 97.2813 48.0104 90.9792 45.0312 83.5313 45.0312 77.1146 47.8958 75.9688 48.3542 75.0521 48.9271 74.5938 49.2708 73.6771 50.0729 73.2188 51.3333 73.2188 52.5938L73.2188 53.8542C79.2917 55.4583 84.9062 57.9792 89.7188 61.1875 94.5312 64.2812 98.1979 68.0625 100.833 72.0729" fill="#E8FAFC" fill-rule="nonzero" fill-opacity="1" transform="matrix(1.03636 0 0 1 1121 1548)"/></g></g></g><text fill="#E8FAFC" fill-opacity="1" font-family="Inter,Inter_MSFontService,sans-serif" font-style="normal" font-variant="normal" font-weight="400" font-stretch="normal" font-size="32" text-anchor="start" direction="ltr" writing-mode="lr-tb" unicode-bidi="normal" text-decoration="none" transform="matrix(1 0 0 1 1108.02 1682)">Interview</text><g><g><g><path d="M93.9583 43.5417 71.0417 43.5417 71.0417 29.7917 93.9583 29.7917 93.9583 43.5417ZM93.9583 61.875 71.0417 61.875 71.0417 48.125 93.9583 48.125 93.9583 61.875ZM93.9583 80.2083 71.0417 80.2083 71.0417 66.4583 93.9583 66.4583 93.9583 80.2083ZM43.5417 80.2083 43.5417 66.4583 66.4583 66.4583 66.4583 80.2083 43.5417 80.2083ZM16.0417 80.2083 16.0417 66.4583 38.9583 66.4583 38.9583 80.2083 16.0417 80.2083ZM16.0417 48.125 38.9583 48.125 38.9583 61.875 16.0417 61.875 16.0417 48.125ZM16.0417 29.7917 38.9583 29.7917 38.9583 43.5417 16.0417 43.5417 16.0417 29.7917ZM66.4583 48.125 66.4583 61.875 43.5417 61.875 43.5417 48.125 66.4583 48.125ZM66.4583 29.7917 66.4583 43.5417 43.5417 43.5417 43.5417 29.7917 66.4583 29.7917ZM9.16667 22.9167 9.16667 87.0833 100.833 87.0833 100.833 22.9167 9.16667 22.9167Z" fill="#E8FAFC" fill-rule="nonzero" fill-opacity="1" transform="matrix(1.02727 0 0 1 797 1451)"/></g></g></g><g><g><g><path d="M33.1146 42.3958 90.5208 42.3958 90.5208 36.6667C90.5208 34.1458 88.4583 32.0833 85.9375 32.0833L51.5625 32.0833 38.9583 23.7188C38.1562 23.2604 37.3542 22.9167 36.4375 22.9167L14.8958 22.9167C12.375 22.9167 10.3125 24.9792 10.3125 27.5L10.3125 83.6458C10.3125 83.875 25.0938 47.7813 25.0938 47.7813 26.4688 44.5729 29.5625 42.3958 33.1146 42.3958Z" fill="#E8FAFC" fill-rule="nonzero" fill-opacity="1" transform="matrix(1.02727 0 0 1 797 1392)"/><path d="M99.6875 51.5625C99.6875 49.1563 97.9688 47.2083 95.5625 46.9792L33.1146 46.9792C31.3958 46.9792 29.9063 48.0104 29.2188 49.5L13.75 87.0833 83.6458 87.0833 99.2292 53.625C99.5729 52.9375 99.6875 52.25 99.6875 51.5625Z" fill="#E8FAFC" fill-rule="nonzero" fill-opacity="1" transform="matrix(1.02727 0 0 1 797 1392)"/></g></g></g><text fill="#E8FAFC" fill-opacity="1" font-family="Inter,Inter_MSFontService,sans-serif" font-style="normal" font-variant="normal" font-weight="400" font-stretch="normal" font-size="32" text-anchor="start" direction="ltr" writing-mode="lr-tb" unicode-bidi="normal" text-decoration="none" transform="matrix(1 0 0 1 795.167 1587)">Monitor</text><g><g><g><path d="M89.9479 20.0521 88.8021 9.73958 76.1979 22.3438 76.8854 28.3021 58.5521 46.6354C56.9479 45.8333 55.1146 45.2604 53.1667 45.2604 46.8646 45.2604 41.7083 50.4167 41.7083 56.7188 41.7083 63.0208 46.8646 68.1771 53.1667 68.1771 59.4688 68.1771 64.625 63.0208 64.625 56.7188 64.625 54.7708 64.1667 53.0521 63.3646 51.4479L81.6979 33.1146 87.6562 33.8021 100.26 21.1979 89.9479 20.0521Z" fill="#E8FAFC" fill-rule="nonzero" fill-opacity="1" transform="matrix(1.02727 0 0 1 1116 763)"/><path d="M90.8646 37.0104 89.375 38.6146 87.1979 38.3854 84.7917 38.0417C88 43.5417 89.9479 49.8438 89.9479 56.7188 89.9479 76.8854 73.4479 93.3854 53.2812 93.3854 33.1146 93.3854 16.6146 76.8854 16.6146 56.7188 16.6146 36.5521 33.1146 20.0521 53.2812 20.0521 60.0417 20.0521 66.4583 21.8854 71.9583 25.2083L71.7292 22.9167 71.3854 20.625 72.9896 19.0208 73.7917 18.2188C67.6042 15.0104 60.7292 13.1771 53.2812 13.1771 29.2188 13.1771 9.73958 32.6562 9.73958 56.7188 9.73958 80.7812 29.2188 100.26 53.2812 100.26 77.3438 100.26 96.8229 80.7812 96.8229 56.7188 96.8229 49.2708 94.9896 42.3958 91.6667 36.3229L90.8646 37.0104Z" fill="#E8FAFC" fill-rule="nonzero" fill-opacity="1" transform="matrix(1.02727 0 0 1 1116 763)"/><path d="M72.4167 48.9271C73.4479 51.3333 73.9062 53.9688 73.9062 56.7188 73.9062 68.0625 64.625 77.3438 53.2812 77.3438 41.9375 77.3438 32.6562 68.0625 32.6562 56.7188 32.6562 45.375 41.9375 36.0938 53.2812 36.0938 56.0313 36.0938 58.6667 36.6667 61.0729 37.5833L66.2292 32.4271C62.3333 30.3646 57.9792 29.2188 53.2812 29.2188 38.1562 29.2188 25.7812 41.5938 25.7812 56.7188 25.7812 71.8438 38.1562 84.2188 53.2812 84.2188 68.4062 84.2188 80.7812 71.8438 80.7812 56.7188 80.7812 52.0208 79.6354 47.6667 77.5729 43.7708L72.4167 48.9271Z" fill="#E8FAFC" fill-rule="nonzero" fill-opacity="1" transform="matrix(1.02727 0 0 1 1116 763)"/></g></g></g><text fill="#E8FAFC" fill-opacity="1" font-family="Inter,Inter_MSFontService,sans-serif" font-style="normal" font-variant="normal" font-weight="400" font-stretch="normal" font-size="32" text-anchor="start" direction="ltr" writing-mode="lr-tb" unicode-bidi="normal" text-decoration="none" transform="matrix(1 0 0 1 1125.16 913)">Match</text><g><g><g><path d="M162.231 42.6923C171.662 42.6923 179.308 50.3379 179.308 59.7692L179.308 162.231C179.308 171.662 171.662 179.308 162.231 179.308L59.7692 179.308C50.3379 179.308 42.6923 171.662 42.6923 162.231L42.6923 59.7692C42.6923 50.3379 50.3379 42.6923 59.7692 42.6923Z" fill="#E8FAFC" fill-rule="nonzero" fill-opacity="1" transform="matrix(1 0 0 1.01351 1059 1130)"/><path d="M125.942 85.3846 96.0577 99.5811 96.0577 122.419 125.942 136.615 125.942 122.419 125.942 99.5811 125.942 85.3846Z" fill="#E8FAFC" fill-rule="evenodd" fill-opacity="1" transform="matrix(1 0 0 1.01351 1059 1130)"/></g></g></g><path d="M1187.5 1268.5 1153.5 1256.01 1153.5 1229.99 1187.5 1217.5Z" stroke="#0B65F4" stroke-width="4.58333" stroke-linecap="butt" stroke-linejoin="miter" stroke-miterlimit="8" stroke-opacity="1" fill="#0B65F4" fill-rule="evenodd" fill-opacity="1"/></g></g></svg>